<?xml version="1.0" encoding="UTF-8"?>
<svg id="Layer_1" xmlns="http://www.w3.org/2000/svg" version="1.1" viewBox="0 0 174.4 112.1">
  <!-- Generator: Adobe Illustrator 29.3.1, SVG Export Plug-In . SVG Version: 2.1.0 Build 151)  -->
  <defs>
    <style>
      .st0 {
        fill: #006db6;
      }

      .st1 {
        fill: #00afd7;
      }
    </style>
  </defs>
  <rect class="st0" x="95.1" y="3.9" width="30.2" height="51.8"/>
  <rect class="st1" x="140.5" y="3.9" width="30.2" height="51.8"/>
  <rect class="st1" x="49.8" y="3.9" width="30.2" height="51.8"/>
  <rect class="st0" x="4.4" y="3.9" width="30.2" height="51.8"/>
  <path class="st0" d="M171.5,85.9c-1,14-11,22.5-21,22.1h-.1c-9.7.3-19.4-7.6-20.9-20.8-1.6,13.2-11.2,21.1-20.9,20.8h0c-9.7.3-19.4-7.6-20.9-20.8-1.6,13.2-11.2,21.1-20.9,20.8h0c-9.7.3-19.4-7.6-20.9-20.8-1.6,13.2-11.2,21.1-20.9,20.8h-.1c-10,.3-20-8.2-21.1-22.1-.3-4.4-.2-12.8-.2-17.5h168.6c0,4.7,0,13.1-.2,17.5h-.3Z"/>
</svg>